<svg xmlns="http://www.w3.org/2000/svg" width="256" height="256"><path fill-opacity=".016" d="M0 128.004v128.004l128.25-.254 128.25-.254.254-127.75L257.008 0H0v128.004m.485.496c0 70.4.119 99.053.265 63.672.146-35.38.146-92.98 0-128C.604 29.153.485 58.1.485 128.5" fill="#1976D2" fill-rule="evenodd"/><path fill-opacity=".239" d="M108.5 1.043c-8.436 1.308-22.538 5.466-30.904 9.113C38.798 27.072 11.493 60.729 1.869 103.5c-1.827 8.118-1.827 40.882 0 49 9.214 40.952 35.157 74.114 71.477 91.37 27.368 13.003 60.771 15.801 89.542 7.501 42.743-12.331 76.187-45.879 88.596-88.871 1.429-4.95 2.87-11.601 3.202-14.781.333-3.18.99-6.019 1.46-6.309.47-.29.854-6.828.854-14.528s-.356-13.78-.79-13.512c-.435.269-1.362-3.141-2.06-7.578-6.149-39.081-34.101-75.901-70.886-93.376C164.745 3.618 153.165.948 131.5.481c-9.35-.202-19.7.051-23 .562M41.566 93.75c.38 25.713.971 57.975 1.313 71.694l.621 24.945 25.5 9.297c14.025 5.114 25.838 9.302 26.25 9.306.412.004.741-31.829.729-70.742l-.021-70.75-26.729-10.251c-14.701-5.638-27.095-10.251-27.542-10.25-.448.001-.502 21.038-.121 46.751m86.684-37.051L103 66.256v71.372c0 39.255.338 71.371.75 71.369.412-.001 12.187-4.501 26.165-10 13.978-5.498 25.566-9.997 25.75-9.997.184 0 .335-31.95.335-71 0-56.171-.261-70.985-1.25-70.929-.687.039-12.613 4.371-26.5 9.628m33.993 62.026.257 71.725 24 8.779c13.2 4.828 25.016 9.051 26.257 9.385l2.256.606-.256-70.86-.257-70.86-25-10.165c-13.75-5.59-25.565-10.203-26.257-10.25-1-.068-1.204 14.553-1 71.64m-33.976-48.406L112.034 76.5l-.017 18.857c-.013 14.653.262 18.762 1.233 18.429.688-.235 8.338-3.095 17-6.355l15.75-5.929V82.751c0-10.313-.338-18.72-.75-18.682-.412.039-8.055 2.851-16.983 6.25m43.26 19.931c-.385 14.438-.549 28.893-.364 32.123l.337 5.872 16.5 5.85c9.075 3.218 16.844 5.863 17.264 5.878.42.015.645-14.21.5-31.612l-.264-31.639-16.468-6.361C179.974 66.863 172.488 64 172.395 64c-.093 0-.483 11.813-.868 26.25m-118.521-.067c.008 1.572 31.318 12.989 31.848 11.612.545-1.415.299-1.534-13.965-6.7-17.904-6.485-17.89-6.482-17.883-4.912M53 100.928c0 .511 2.362 1.802 5.25 2.869 20.437 7.556 25.909 9.377 26.474 8.812 1.242-1.241-1.349-2.51-15.392-7.537C54.578 99.791 53 99.39 53 100.928m-1 10.954c0 1.172 31.834 12.617 32.696 11.755 1.219-1.219-1.055-2.314-15.57-7.501C54.56 110.931 52 110.295 52 111.882M.397 128c0 7.975.156 11.238.346 7.25.189-3.988.189-10.513 0-14.5-.19-3.987-.346-.725-.346 7.25m127.359-6.108c-9.496 3.383-15.746 6.131-15.75 6.925-.007 1.57-.021 1.573 17.883-4.912 14.264-5.166 14.51-5.285 13.965-6.7-.195-.506-7.439 1.603-16.098 4.687M52 122.879c0 1.006 1 1.429 17.923 7.595 12.701 4.627 15.077 5.2 15.077 3.633 0-1.039.538-.813-17.168-7.187C53.683 121.827 52 121.397 52 122.879m76.067 10.092c-8.489 3.096-15.614 6.17-15.834 6.829-.22.66.034 1.2.563 1.2 1.137 0 31.49-10.952 32.131-11.594.242-.242.02-.805-.494-1.252-.513-.447-7.878 1.721-16.366 4.817m.476 11.002c-8.776 3.173-16.126 6.277-16.333 6.898-.609 1.827 1.034 1.408 16.912-4.318 16.031-5.781 16.282-5.898 15.732-7.388-.195-.529-7.535 1.635-16.311 4.808M52 162.903v18.663l15.666 5.967c8.617 3.282 16.052 6.12 16.523 6.308.47.187.733-8.077.583-18.365L84.5 156.77l-16.25-6.265L52 144.24v18.663m120-15.001c0 .496 1.238 1.355 2.75 1.907 22.372 8.177 28.687 10.154 29.582 9.259.67-.67.532-1.167-.415-1.498-.779-.273-7.701-2.763-15.382-5.533-14.279-5.15-16.535-5.714-16.535-4.135m-52.25 10.245-7.75 3.022v18.999c0 10.449.351 18.849.78 18.665.429-.183 4.254-1.631 8.5-3.217l7.72-2.884v-18.866c0-10.376-.338-18.838-.75-18.803-.412.034-4.237 1.422-8.5 3.084m52.458.977c.598 1.793 30.729 12.339 31.902 11.166.666-.666-4.208-2.884-14.603-6.645-16.427-5.944-17.902-6.329-17.299-4.521m-31.458 10.089-7.75 3.095v9.453c0 8.582.161 9.394 1.75 8.809.963-.355 4.787-1.824 8.5-3.265l6.75-2.621v-9.342c0-5.138-.338-9.315-.75-9.283-.412.033-4.238 1.452-8.5 3.154m30.25.689c0 .496 1.238 1.355 2.75 1.907C188.999 177.383 202.32 182 203.149 182c.56 0 .848-.508.642-1.128-.365-1.093-28.994-11.872-31.533-11.872-.692 0-1.258.406-1.258.902" fill="#1976D2" fill-rule="evenodd"/><path fill-opacity=".324" d="M118 .588c-24.359 2.778-43.149 9.417-62 21.908C46.365 28.88 28.88 46.365 22.496 56 12.448 71.163 4.846 90.004 1.917 107c-1.663 9.645-1.663 32.355 0 42 1.762 10.226 7.249 26.93 11.825 36 12.436 24.648 34.567 46.455 58.962 58.098 22.783 10.873 49.551 15.054 73.296 11.447 56.843-8.632 99.235-51.14 108.747-109.045 3.075-18.717 1.512-35.312-5.32-56.5-6.592-20.443-15.755-35.341-31.41-51.063C194.586 14.404 166.219 1.975 132.903.644 126.631.394 119.925.368 118 .588M40.353 50.604c.32 2.693.835 32.796 1.144 66.896.309 34.1.811 64.527 1.115 67.615l.553 5.614 25.667 9.289a87155.98 87155.98 0 0 1 26.918 9.742c.993.36 1.25-14.185 1.25-70.618 0-68.122-.077-71.113-1.85-72.062-2.091-1.119-50.639-20.029-53.514-20.844-1.689-.479-1.809-.07-1.283 4.368M129 55.86l-25.5 9.649-.257 72.223-.256 72.223 2.256-.868c1.819-.7 45.898-17.986 50.507-19.807.984-.389 1.25-15.703 1.25-71.887 0-56.504-.261-71.371-1.25-71.287-.687.058-12.725 4.447-26.75 9.754m32.243 62.39.257 72.25 18.5 6.72c10.175 3.696 22.213 8.067 26.75 9.713l8.25 2.993V67.272l-26.279-10.636C174.267 50.786 162.114 46 161.714 46c-.4 0-.612 32.513-.471 72.25m10.993-22.063.264 32.012 16.25 5.743 16.25 5.743V76.95l-2.25-.878c-1.238-.484-8.669-3.358-16.514-6.389l-14.263-5.509.263 32.013m-44.082-25.222c-8.44 3.241-15.538 6.086-15.773 6.321-.235.235-.304 8.528-.154 18.43l.273 18.003 16.24-6.11 16.24-6.109.01-18.25c.005-10.037-.328-18.234-.74-18.214-.412.019-7.656 2.687-16.096 5.929M54 90.925C55.727 91.919 83.684 102 84.715 102c2.464 0-3.113-2.545-15.18-6.928C56.627 90.384 49.98 88.61 54 90.925m-.984 9.718c.021 1.154 30.921 12.269 31.5 11.331.251-.407-6.175-3.111-14.28-6.009-8.105-2.899-15.298-5.475-15.986-5.725-.687-.25-1.243-.068-1.234.403M53 111.76c0 .509 6.412 3.217 14.25 6.017 7.838 2.8 15.037 5.393 16 5.764.963.37 1.75.256 1.75-.254 0-.509-6.819-3.37-15.153-6.357-8.334-2.986-15.534-5.58-16-5.763-.466-.184-.847.083-.847.593m74.636 10.728c-14.629 5.321-17.301 6.512-14.609 6.512 2.227 0 30.942-10.435 30.958-11.25.023-1.172-.583-.996-16.349 4.738M.336 128c0 4.125.177 5.813.392 3.75.216-2.062.216-5.437 0-7.5-.215-2.062-.392-.375-.392 3.75M52 122.702c0 .504 2.138 1.625 4.75 2.491 2.612.866 9.813 3.413 16 5.661 6.188 2.247 11.25 3.705 11.25 3.239 0-.467-6.638-3.222-14.75-6.124-8.112-2.901-15.312-5.479-16-5.729-.687-.25-1.25-.042-1.25.462m75.279 11.009c-8.372 3.065-15.018 5.902-14.77 6.304.544.879 31.482-10.19 31.487-11.265.006-1.136-.377-1.022-16.717 4.961m1.357 10.777c-14.529 5.284-16.403 6.115-15.553 6.893.571.523 30.182-10.285 31.367-11.448 1.667-1.637-.529-1.004-15.814 4.555M173 147.951c0 .476 2.588 1.757 5.75 2.846 3.162 1.089 10.137 3.586 15.5 5.548 5.363 1.963 9.75 3.182 9.75 2.71 0-.473-1.238-1.307-2.75-1.855-20.881-7.558-28.25-9.971-28.25-9.249m-53.5 10.864-7 2.736-.273 18.225c-.213 14.253.005 18.21 1 18.161.7-.034 4.423-1.292 8.273-2.795l7-2.733.273-18.204c.213-14.228-.006-18.196-1-18.165-.7.021-4.423 1.27-8.273 2.775m52.5-.162c0 .477 6.823 3.337 15.162 6.357 8.34 3.019 15.54 5.64 16 5.823.461.184.838-.085.838-.596 0-.512-6.637-3.318-14.75-6.235-8.113-2.918-15.312-5.51-16-5.761-.687-.25-1.25-.065-1.25.412m-24 16.78c0 7.541-.21 8.499-1.991 9.064-1.095.348-2.515.309-3.155-.087-.692-.428-.895-.285-.499.355.39.632-.809 1.56-2.913 2.254-1.967.649-3.398 1.358-3.181 1.575.217.218 3.172-.615 6.566-1.849l6.171-2.245.001-8.75c.001-4.812-.224-8.75-.499-8.75s-.5 3.795-.5 8.433m-8.25-5.106-5.75 2.161.206 9.006.205 9.006.333-8.695c.29-7.584.582-8.774 2.285-9.314 1.074-.341 2.52-.294 3.212.105.72.414.908.34.439-.172-.459-.502.863-1.642 3-2.587 5.41-2.392 2.908-2.08-3.93.49m32.25-.438c0 .443 6.637 3.192 14.75 6.109 8.113 2.918 15.313 5.51 16 5.761.688.25 1.25.032 1.25-.484 0-.517-1.463-1.412-3.25-1.989-1.787-.577-8.988-3.108-16-5.625-7.012-2.517-12.75-4.214-12.75-3.772" fill="#1976D2" fill-rule="evenodd"/><path fill-opacity=".187" d="M172 96.377v31.376l15.25 5.293c8.387 2.911 15.813 5.49 16.5 5.731.983.343 1.25-6.197 1.25-30.567V77.207l-9.75-3.738c-5.363-2.056-12.415-4.802-15.672-6.103-3.258-1.301-6.295-2.366-6.75-2.366-.456 0-.828 14.119-.828 31.377m44 42.876c0 41.425-.374 70.747-.903 70.747-.496 0-13.799-4.7-29.562-10.444l-28.659-10.444-26.494 10.444C111.132 207.144 102.7 210 99.545 210c-2.973 0-12.15-2.845-29.093-9.017-13.613-4.96-24.891-8.878-25.063-8.706-.171.172 13.508 14.1 30.4 30.951l30.711 30.639 9.928 1.155c20.984 2.441 47.565-2.5 67.783-12.599 30.599-15.283 54.019-42.118 64.773-74.216 5.492-16.394 7.826-36.402 6.039-51.779l-1.154-9.928-18.934-18.997L216 68.506v70.747m-96 19.745-7.5 2.751-.273 18.125c-.149 9.969-.091 18.126.131 18.126 1.005 0 14.226-5.227 14.916-5.896.425-.414.65-8.65.5-18.304l-.274-17.552-7.5 2.75" fill="#1976D2" fill-rule="evenodd"/></svg>